<?xml version="1.0" standalone="no"?>
<!DOCTYPE svg PUBLIC "-//W3C//DTD SVG 20010904//EN"
 "http://www.w3.org/TR/2001/REC-SVG-20010904/DTD/svg10.dtd">
<svg version="1.0" xmlns="http://www.w3.org/2000/svg"
 width="500.000000pt" height="500.000000pt" viewBox="0 0 500.000000 500.000000"
 preserveAspectRatio="xMidYMid meet">

<g transform="translate(0.000000,500.000000) scale(0.100000,-0.100000)"
fill="#000000" stroke="none">
<path d="M0 2500 l0 -2500 2500 0 2500 0 0 2500 0 2500 -2500 0 -2500 0 0
-2500z m2135 80 l-25 -26 25 -24 25 -24 -20 -21 c-26 -27 -25 -33 5 -65 l25
-26 -285 -284 -285 -285 -285 285 -285 284 25 26 25 26 -30 29 -30 29 27 28
27 28 -24 25 -24 26 284 285 285 286 282 -288 283 -288 -25 -26z m290 300 c54
-12 110 -73 120 -129 5 -33 2 -51 -17 -89 -34 -70 -74 -92 -164 -92 l-74 0 0
153 c0 85 3 157 7 160 9 10 81 8 128 -3z m333 -27 l3 -33 -55 0 c-56 0 -56 0
-56 -30 0 -29 1 -30 50 -30 l50 0 0 -35 0 -35 -50 0 c-49 0 -50 -1 -50 -30 0
-30 1 -30 55 -30 54 0 55 0 55 -30 l0 -30 -90 0 -90 0 0 160 0 161 88 -3 87
-3 3 -32z m125 -62 c21 -52 39 -96 41 -98 2 -2 18 36 36 84 18 49 37 94 43
101 11 14 77 16 77 2 0 -6 -28 -78 -62 -160 -62 -147 -64 -150 -94 -150 -30 0
-32 2 -92 148 -34 81 -62 154 -62 161 0 8 12 11 38 9 37 -3 37 -3 75 -97z
m395 62 l3 -33 -55 0 c-56 0 -56 0 -56 -30 0 -29 1 -30 50 -30 l50 0 0 -35 0
-35 -50 0 c-49 0 -50 -1 -50 -30 0 -30 1 -30 55 -30 54 0 55 0 55 -30 l0 -30
-95 0 -95 0 0 153 c0 85 3 157 7 161 4 4 46 5 93 4 l85 -3 3 -32z m110 -95 l3
-128 54 0 c54 0 55 0 55 -30 l0 -30 -95 0 -95 0 0 153 c0 85 3 157 7 161 4 4
21 6 38 4 l30 -3 3 -127z m380 102 c114 -84 65 -278 -76 -297 -54 -7 -123 26
-153 74 -32 52 -31 129 3 180 14 22 41 47 59 57 47 23 125 17 167 -14z m244
20 c53 -15 81 -55 75 -105 -7 -51 -42 -81 -102 -90 l-45 -7 0 -54 0 -54 -40 0
-40 0 0 153 c0 85 3 157 7 160 10 11 103 8 145 -3z m286 -27 l3 -33 -55 0
c-56 0 -56 0 -56 -30 0 -29 1 -30 50 -30 l50 0 0 -35 0 -35 -50 0 c-49 0 -50
-1 -50 -30 0 -30 1 -30 55 -30 54 0 55 0 55 -30 l0 -30 -90 0 -90 0 0 160 0
161 88 -3 87 -3 3 -32z m184 27 c46 -13 68 -43 68 -93 0 -29 -7 -46 -28 -67
l-28 -28 48 -53 c26 -30 48 -57 48 -61 0 -5 -20 -8 -44 -8 -41 0 -46 3 -87 57
l-44 57 -3 -57 -3 -57 -34 0 -35 0 0 160 0 160 53 0 c28 0 69 -5 89 -10z
m-1401 -440 c36 -27 69 -96 69 -149 0 -149 -177 -234 -287 -138 -113 99 -69
285 73 315 47 10 107 -2 145 -28z m345 12 c11 -6 27 -18 34 -27 11 -14 10 -20
-12 -42 l-26 -26 -27 22 c-38 29 -71 27 -106 -8 -23 -24 -29 -38 -29 -74 0
-93 90 -144 140 -79 l22 27 -41 3 c-39 3 -41 4 -41 38 l0 34 80 0 80 0 0 -45
c0 -83 -55 -149 -134 -160 -60 -9 -107 8 -150 55 -93 103 -42 272 89 300 34 7
90 -1 121 -18z m-967 7 c17 -6 36 -19 41 -29 15 -28 12 -83 -6 -108 -8 -12
-10 -22 -5 -22 26 0 51 -41 51 -84 0 -37 -5 -48 -31 -70 -28 -24 -38 -26 -120
-26 l-89 0 0 175 0 175 64 0 c34 0 77 -5 95 -11z m201 -129 l0 -140 60 0 60 0
0 -35 0 -35 -100 0 -100 0 0 175 0 175 40 0 40 0 0 -140z"/>
<path d="M1320 2885 c-273 -273 -274 -274 -255 -295 l19 -21 251 251 c137 137
255 250 262 250 6 0 122 -113 258 -252 l246 -251 22 22 22 21 -275 275 -275
275 -275 -275z"/>
<path d="M1347 2803 l-247 -247 22 -23 22 -24 228 228 228 228 225 -225 c225
-225 225 -225 245 -205 20 20 20 20 -228 267 l-247 248 -248 -247z"/>
<path d="M1375 2720 l-220 -220 220 -220 220 -220 222 222 223 223 -217 217
c-120 120 -220 218 -223 218 -3 0 -104 -99 -225 -220z m148 -95 c64 -31 91
-102 64 -168 -22 -51 -68 -77 -139 -77 l-58 0 0 130 0 130 51 0 c28 0 65 -7
82 -15z m235 -1 c24 -17 31 -71 10 -92 -8 -8 -6 -16 12 -30 17 -13 23 -28 22
-53 -1 -52 -30 -69 -113 -69 l-69 0 0 130 0 130 58 0 c36 0 66 -6 80 -16z"/>
<path d="M1450 2506 c0 -73 0 -73 25 -68 52 10 73 84 35 122 -11 11 -29 20
-40 20 -18 0 -20 -7 -20 -74z"/>
<path d="M1680 2565 c0 -20 4 -26 18 -23 9 2 17 12 17 23 0 11 -8 21 -17 23
-14 3 -18 -3 -18 -23z"/>
<path d="M1680 2455 c0 -23 4 -26 28 -23 19 2 27 9 27 23 0 14 -8 21 -27 23
-24 3 -28 0 -28 -23z"/>
<path d="M1062 2528 c-17 -17 -15 -32 8 -53 20 -18 21 -18 42 3 21 21 21 22 3
42 -21 23 -36 25 -53 8z"/>
<path d="M2076 2522 c-15 -18 -15 -20 4 -37 19 -17 21 -17 40 0 19 17 19 19 4
37 -10 10 -20 18 -24 18 -4 0 -14 -8 -24 -18z"/>
<path d="M1122 2468 l-21 -24 244 -244 245 -245 250 250 c250 250 250 250 230
270 -20 20 -20 20 -248 -208 l-227 -227 -225 225 -226 226 -22 -23z"/>
<path d="M1843 2188 l-253 -253 -250 250 c-250 250 -250 250 -270 230 -20 -20
-20 -20 255 -295 l275 -275 275 275 274 274 -21 23 c-12 13 -24 23 -27 23 -3
0 -120 -114 -258 -252z"/>
<path d="M2370 2730 c0 -88 1 -90 23 -90 50 0 84 75 61 135 -6 16 -54 45 -74
45 -6 0 -10 -34 -10 -90z"/>
<path d="M3625 2795 c-19 -18 -25 -35 -25 -70 0 -57 25 -85 75 -85 50 0 75 28
75 85 0 54 -33 95 -75 95 -14 0 -37 -11 -50 -25z"/>
<path d="M3940 2785 c0 -32 2 -35 29 -35 21 0 32 6 36 20 9 27 -11 50 -41 50
-21 0 -24 -5 -24 -35z"/>
<path d="M4410 2785 c0 -34 2 -36 28 -33 23 3 27 8 27 33 0 25 -4 30 -27 33
-26 3 -28 1 -28 -33z"/>
<path d="M2911 2364 c-38 -48 -23 -141 26 -163 39 -18 63 -13 95 19 28 28 30
35 26 81 -7 65 -29 89 -84 89 -34 0 -47 -5 -63 -26z"/>
<path d="M2380 2366 c0 -39 6 -43 34 -23 24 18 17 51 -12 55 -19 3 -22 -1 -22
-32z"/>
<path d="M2380 2220 c0 -41 5 -45 47 -34 48 13 34 74 -17 74 -28 0 -30 -2 -30
-40z"/>
</g>
</svg>
